{"title":"Pirates of the Caribbean-The Curse of the Black Pearl(2003) m-HD","uid":6461015,"size":890896589,"categoryP":"video","categoryS":"movies","magnet":"?xt=urn:btih:d3db87998597cdf320295b4d3db7cce633f365cc&amp;dn=Pirates+of+the+Caribbean-The+Curse+of+the+Black+Pearl%282003%29+m-HD&amp;tr=udp%3A%2F%2Ftracker.openbittorrent.com%3A80&amp;tr=udp%3A%2F%2Fopen.demonii.com%3A1337&amp;tr=udp%3A%2F%2Ftracker.coppersurfer.tk%3A6969&amp;tr=udp%3A%2F%2Fexodus.desync.com%3A6969","seeders":0,"leechers":1,"uploader":"HDvideos","files":4,"time":1307772399,"description":"Pirates of the Caribbean-The Curse of the Black Pearl(2003) m-HD 480p AC3 Hindi Dubbed-=MTR=-\n\nCredits to Original Ripper\n\nCheck out MY latest Uploads:\n &lt;a href=&quot;\nhttp://thepiratebay.se/user/HDvideos/0/7&quot; rel=&quot;nofollow&quot; target=&quot;_NEW&quot;&gt;\nhttp://thepiratebay.se/user/HDvideos/0/7&lt;/a&gt;\n\nStay updated with us....\n\nSeed after downloading....\n\nEnjoY with HDvideos..\n\nTorrent From Mastitorrents\n\nTeam Mastitorrents\n\nSay thanks if u like my posts\n\nGive ur valuable feedbacks\n\nQuality Uploads from HDvideos\n\n\nFormat                          : Matroska\nFile size                       : 845 MiB\nDuration                        : 2h 23mn\nOverall bit rate                : 826 Kbps\nEncoded date                    : UTC 2011-06-03 22:52:35\nWriting application             : mkvmerge v4.6.0 ('Still Crazy After All These Years') built on Mar 10 2011 02:50:32\nWriting library                 : libebml v1.2.0 + libmatroska v1.1.0\n\nVideo\nID                              : 1\nFormat                          : AVC\nFormat/Info                     : Advanced Video Codec\nFormat profile                  : High****************L3.1\nFormat settings, CABAC          : Yes\nFormat settings, ReFrames       : 5 frames\nCodec ID                        : V_MPEG4/ISO/AVC\nDuration                        : 2h 23mn\nBit rate                        : 760 Kbps\nWidth                           : 848 pixels\nHeight                          : 368 pixels\nDisplay aspect ratio            : 2.35:1\nFrame rate                      : 23.976 fps\nColor space                     : YUV\nChroma subsampling              : 4:2:0\nBit depth                       : 8 bits\nScan type                       : Progressive\nBits/(Pixel*Frame)              : 0.102\nStream size                     : 763 MiB (90%)\nWriting library                 : x264 core 114 r1924 08d04a4\nEncoding settings               : cabac=1 / ref=5 / deblock=1:-1:-1 / analyse=0x3:0x133 / me=umh / subme=8 / psy=1 / psy_rd=1.00:0.00 / mixed_ref=1 / me_range=24 / chroma_me=1 / trellis=2 / 8x8dct=1 / cqm=0 / deadzone=21,11 / fast_pskip=1 / chroma_qp_offset=-2 / threads=3 / sliced_threads=0 / nr=0 / decimate=1 / interlaced=0 / constrained_intra=0 / bframes=3 / b_pyramid=2 / b_adapt=2 / b_bias=0 / direct=3 / weightb=1 / open_gop=0 / weightp=2 / keyint=250 / keyint_min=23 / scenecut=40 / intra_refresh=0 / rc_lookahead=50 / rc=2pass / mbtree=1 / bitrate=760 / ratetol=1.0 / qcomp=0.60 / qpmin=10 / qpmax=69 / qpstep=4 / cplxblur=20.0 / qblur=0.5 / ip_ratio=1.40 / aq=1:1.00\n\nAudio\nID                              : 2\nFormat                          : AC-3\nFormat/Info                     : Audio Coding 3\nMode extension                  : CM (complete main)\nCodec ID                        : A_AC3\nDuration                        : 2h 23mn\nBit rate mode                   : Constant\nBit rate                        : 64.0 Kbps\nChannel(s)                      : 2 channels\nChannel positions               : Front: L R\nSampling rate                   : 48.0 KHz\nBit depth                       : 16 bits\nCompression mode                : Lossy\nStream size                     : 65.5 MiB (8%)\n\n","torrent":{"xt":"urn:btih:d3db87998597cdf320295b4d3db7cce633f365cc","amp;dn":"Pirates+of+the+Caribbean-The+Curse+of+the+Black+Pearl%282003%29+m-HD","amp;tr":["udp%3A%2F%2Ftracker.openbittorrent.com%3A80","udp%3A%2F%2Fopen.demonii.com%3A1337","udp%3A%2F%2Ftracker.coppersurfer.tk%3A6969","udp%3A%2F%2Fexodus.desync.com%3A6969"],"infoHash":"d3db87998597cdf320295b4d3db7cce633f365cc","infoHashBuffer":{"type":"Buffer","data":[211,219,135,153,133,151,205,243,32,41,91,77,61,183,204,230,51,243,101,204]},"announce":[],"urlList":[]}}